<svg width="10" height="10" viewBox="0 0 10 10" fill="none" xmlns="http://www.w3.org/2000/svg">
<path d="M4.56982 6.87988L7.79004 3.6499L7.1499 3.00977L4.56982 5.6001L3.27002 4.29004L2.62012 4.93018L4.56982 6.87988ZM5.20996 9.3501C4.57996 9.3501 3.98018 9.23023 3.43018 8.99023C2.87018 8.75023 2.38021 8.41977 1.97021 8.00977C1.11969 7.1448 0.638785 5.98307 0.629883 4.77002C0.629883 4.14002 0.75 3.55023 1 2.99023C1.24 2.43023 1.56021 1.95004 1.97021 1.54004C2.38021 1.13004 2.87018 0.800059 3.43018 0.560059C3.98018 0.320059 4.57996 0.200195 5.20996 0.200195C5.83996 0.200195 6.44023 0.320059 6.99023 0.560059C7.55023 0.800059 8.0302 1.13004 8.4502 1.54004C8.8602 1.95004 9.17992 2.43023 9.41992 2.99023C9.65992 3.55023 9.77979 4.14002 9.77979 4.77002C9.77979 5.41002 9.65992 6.00006 9.41992 6.56006C9.19054 7.10003 8.86174 7.59165 8.4502 8.00977C8.0302 8.41977 7.55023 8.75023 6.99023 8.99023C6.44023 9.23023 5.83996 9.3501 5.20996 9.3501ZM5.20996 8.43018C6.22996 8.43018 7.10006 8.08012 7.81006 7.37012C8.51006 6.66012 8.87012 5.80002 8.87012 4.77002C8.87012 3.75002 8.51006 2.89018 7.81006 2.18018C7.10006 1.47018 6.22996 1.10986 5.20996 1.10986C4.18996 1.10986 3.31986 1.47018 2.60986 2.18018C1.89986 2.89018 1.5498 3.75002 1.5498 4.77002C1.5498 5.80002 1.89986 6.66012 2.60986 7.37012C3.31986 8.08012 4.18996 8.43018 5.20996 8.43018Z" fill="#EE2A4A"/>
</svg>
