<svg width="7" height="12" viewBox="0 0 7 12" fill="none" xmlns="http://www.w3.org/2000/svg">
<path d="M6.56973 6.80957C6.85973 6.51957 6.85973 6.0295 6.56973 5.7395L1.70986 0.879395C1.6392 0.80804 1.55499 0.751546 1.4623 0.712891C1.36962 0.674235 1.27025 0.654297 1.16982 0.654297C1.0694 0.654297 0.970031 0.674235 0.877344 0.712891C0.784657 0.751546 0.700451 0.80804 0.629785 0.879395C0.329785 1.17939 0.329785 1.65947 0.629785 1.95947L4.9501 6.27954L0.629785 10.5896C0.329785 10.8896 0.329785 11.3694 0.629785 11.6694C0.929785 11.9694 1.40986 11.9694 1.70986 11.6694L6.56973 6.80957ZM5.64004 7.03955H6.02969V5.50952H5.64004V7.03955Z" fill="black"/>
</svg>
